# AST/ASF file generated using VICON BodyLanguage
# -----------------------------------------------
:version 1.10
:name VICON
:units
  mass 1.0
  length 0.45
  angle deg
:documentation
   .ast/.asf automatically generated from VICON data using
   VICON BodyBuilder and BodyLanguage model FoxedUp or BRILLIANT.MOD
:root
   order TX TY TZ RX RY RZ
   axis XYZ
   position 0 0 0  
   orientation 0 0 0 
:bonedata
  begin
     id 1 
     name lhipjoint
     direction 0.576517 -0.752066 0.319413 
     length 2.45433 
     axis 0 0 0  XYZ
  end
  begin
     id 2 
     name lfemur
     direction 0.34202 -0.939693 0  
     length 7.54459  
     axis 0 0 20  XYZ
    dof rx ry rz
    limits (-160.0 20.0)
           (-70.0 70.0)
           (-60.0 70.0)
  end
  begin
     id 3 
     name ltibia
     direction 0.34202 -0.939693 0   
     length 7.73986   
     axis 0 0 20   XYZ
    dof rx
    limits (-10.0 170.0)
  end
  begin
     id 4 
     name lfoot
     direction 0.090693 -0.249177 0.964202   
     length 2.28437   
     axis -90 7.62852e-016 20   XYZ
    dof rx rz
    limits (-45.0 90.0)
           (-70.0 20.0)
  end
  begin
     id 5 
     name ltoes
     direction 1.5356e-011 -4.21928e-011 1   
     length 1.14243   
     axis -90 7.62852e-016 20   XYZ
    dof rx
    limits (-90.0 20.0)
  end
  begin
     id 6 
     name rhipjoint
     direction -0.573937 -0.753736 0.320122   
     length 2.44889  
     axis 0 0 0  XYZ 
  end
  begin
     id 7 
     name rfemur
     direction -0.34202 -0.939693 0   
     length 7.50166   
     axis 0 0 -20   XYZ
    dof rx ry rz
    limits (-160.0 20.0)
           (-70.0 70.0)
           (-70.0 60.0)
  end
  begin
     id 8 
     name rtibia
     direction -0.34202 -0.939693 0   
     length 7.54266   
     axis 0 0 -20   XYZ
    dof rx
    limits (-10.0 170.0)
 end
 begin
     id 9 
     name rfoot
     direction -0.114017 -0.31326 0.942798   
     length 2.34212  
     axis -90 -7.62852e-016 -20   XYZ
    dof rx rz
    limits (-45.0 90.0)
           (-20.0 70.0)
  end
  begin
     id 10 
     name rtoes
     direction -1.53557e-011 -4.21867e-011 1   
     length 1.16246   
     axis -90 -7.62852e-016 -20   XYZ
    dof rx
    limits (-90.0 20.0)
  end
  begin
     id 11 
     name lowerback
     direction -0.0228371 0.999155 -0.034167   
     length 2.0537   
     axis 0 0 0   XYZ
    dof rx ry rz
    limits (-20.0 45.0)
           (-30.0 30.0)
           (-30.0 30.0)
  end
  begin
     id 12 
     name upperback
     direction 0.0198981 0.999794 0.00389455   
     length 2.05302   
     axis 0 0 0   XYZ
    dof rx ry rz
    limits (-20.0 45.0)
           (-30.0 30.0)
           (-30.0 30.0)
  end
  begin
     id 13 
     name thorax
     direction 0.0304566 0.99935 0.0192987   
     length 2.05315   
     axis 0 0 0   XYZ
    dof rx ry rz
    limits (-20.0 45.0)
           (-30.0 30.0)
           (-30.0 30.0)
  end
  begin
     id 14 
     name lowerneck
     direction -0.0196762 0.99417 0.106017   
     length 1.82056   
     axis 0 0 0   XYZ
    dof rx ry rz
    limits (-20.0 45.0)
           (-30.0 30.0)
           (-30.0 30.0)
  end
  begin
     id 15 
     name upperneck
     direction 0.00517787 0.9802 -0.197944   
     length 1.83835   
     axis 0 0 0   XYZ
    dof rx ry rz
    limits (-20.0 45.0)
           (-30.0 30.0)
           (-30.0 30.0)
  end
  begin
     id 16
     name head
     direction 0.00211419 0.996945 -0.078081  
     length 1.85629  
     axis 0 0 0   XYZ
    dof rx ry rz
    limits (-20.0 45.0)
           (-30.0 30.0)
           (-30.0 30.0)
  end
  begin
     id 17 
     name lclavicle
     direction 0.930001 0.365811 -0.0357824  
     length 3.81961  
     axis 0 0 0   XYZ
    dof ry rz
    limits (-20.0 10.0)
           (0.0 20.0)
  end
  begin
     id 18 
     name lhumerus
     direction 1 -4.48968e-011 -3.06644e-027   
     length 5.14507   
     axis 180 -30 -90   XYZ
    dof rx ry rz
    limits (-60.0 90.0)
           (-90.0 90.0)
           (-90.0 90.0)
  end
  begin
     id 19
     name lradius
     direction 1 -4.48965e-011 9.06925e-028   
     length 3.50646   
     axis 180 -30 -90   XYZ
    dof rx
    limits (-10.0 170.0)
  end
  begin
     id 20
     name lwrist
     direction 1 -4.48957e-011 1.03922e-027   
     length 1.75323   
     axis -2.56395e-016 90 90   XYZ
    dof ry
    limits (-180.0 0.0)
 end
  begin
     id 21 
     name lhand
     direction 1 -4.48967e-011 2.08017e-027   
     length 0.629969   
     axis -1.32723e-015 90 90   XYZ
    dof rx rz
    limits (-90.0 90.0)
           (-45.0 45.0)
  end
  begin
     id 22 
     name lfingers
     direction 1 -4.49089e-011 4.20095e-027   
     length 0.507897   
     axis -2.6545e-015 90 90   XYZ
    dof rx
    limits (0.0 90.0)
  end
  begin
     id 23
     name lthumb
     direction 0.707107 -6.35001e-011 0.707107   
     length 0.729241   
     axis -90 45 5.05613e-014   XYZ
    dof rx rz
    limits (-45.0 45.0)
           (-45.0 45.0)
  end
  begin
     id 24 
     name rclavicle
     direction -0.881882 0.464123 -0.0829113   
     length 3.47515  
     axis 0 0 0   XYZ 
    dof ry rz
    limits (-10.0 20.0)
           (-20.0 0.0)
  end
  begin
     id 25 
     name rhumerus
     direction -1 -4.48961e-011 -1.55672e-027  
     length 5.232   
     axis 180 30 90   XYZ
    dof rx ry rz
    limits (-90.0 60.0)
           (-90.0 90.0)
           (-90.0 90.0)
  end
  begin
     id 26 
     name rradius
     direction -1 -4.48963e-011 6.18178e-029   
     length 3.65641   
     axis 180 30 90   XYZ
    dof rx
    limits (-10.0 170.0)
  end
  begin
     id 27 
     name rwrist
     direction -1 -4.48982e-011 1.04136e-027   
     length 1.8282   
     axis -2.56395e-016 -90 -90   XYZ
    dof ry
    limits (-180.0 0.0)
  end
  begin
     id 28
     name rhand
     direction -1 -4.48929e-011 2.07378e-027   
     length 0.656807   
     axis -1.32723e-015 -90 -90   XYZ
    dof rx rz
    limits (-90.0 90.0)
           (-45.0 45.0)
  end
  begin
     id 29
     name rfingers
     direction -1 -4.489e-011 4.13816e-027   
     length 0.529535   
     axis -2.6545e-015 -90 -90   XYZ
    dof rx
    limits (0.0 90.0)
  end
  begin
     id 30
     name rthumb
     direction -0.707107 -6.34843e-011 0.707107   
     length 0.760309   
     axis -90 -45 -5.05613e-014   XYZ
    dof rx rz
    limits (-45.0 45.0)
           (-45.0 45.0)
  end
:hierarchy
  begin
    root lhipjoint rhipjoint lowerback
    lhipjoint lfemur
    lfemur ltibia
    ltibia lfoot
    lfoot ltoes
    rhipjoint rfemur
    rfemur rtibia
    rtibia rfoot
    rfoot rtoes
    lowerback upperback
    upperback thorax
    thorax lowerneck lclavicle rclavicle
    lowerneck upperneck
    upperneck head
    lclavicle lhumerus
    lhumerus lradius
    lradius lwrist
    lwrist lhand lthumb
    lhand lfingers
    rclavicle rhumerus
    rhumerus rradius
    rradius rwrist
    rwrist rhand rthumb
    rhand rfingers
  end

#!OML:ASF H:\ManfredETheater\Project 1\Capture day 1\Session 1\subject.ASF
:FULLY-SPECIFIED
:DEGREES
47
root 1.06045 16.4415 -27.1182 18.3701 -6.33192 8.20763
lowerback 15.2378 -2.89634 -6.80607
upperback -0.159875 -5.03036 0.158173
thorax -8.12471 -2.14344 5.09345
lowerneck -19.4911 2.0094 -1.8274
upperneck 2.73579 3.2864 -2.49147
head 3.90785 1.43447 -0.201616
rclavicle -1.33186e-014 1.19271e-015
rhumerus -76.148 -3.25975 -81.6933
rradius 92.6953
rwrist -8.22829
rhand -28.2331 9.92763
rfingers 7.12502
rthumb -1.611 -20.046
lclavicle -1.33186e-014 1.19271e-015
lhumerus -40.7774 -21.7087 103.539
lradius 122.467
lwrist 12.7926
lhand -24.9503 -19.8529
lfingers 7.12502
lthumb 1.55955 10.1212
rfemur -67.949 -7.57872 22.4218
rtibia 50.3071
rfoot -4.3454 -1.5179
rtoes -28.1321
lfemur -3.12699 -5.47371 -32.2214
ltibia 59.0005
lfoot 12.8287 -10.5604
ltoes -4.13846
48
root 1.02625 16.4281 -26.6536 17.6402 -6.19177 7.6418
lowerback 15.6889 -2.77202 -6.25271
upperback -0.0115082 -4.77304 0.371383
thorax -8.27432 -2.03249 4.98963
lowerneck -19.4202 1.92049 -1.92142
upperneck 2.69767 3.20236 -2.67402
head 3.88754 1.38144 -0.251702
rclavicle 7.27552e-014 -5.96354e-015
rhumerus -74.1317 -4.02196 -81.8139
rradius 91.5907
rwrist -8.30622
rhand -28.0731 9.40565
rfingers 7.12502
rthumb -1.4565 -20.5691
lclavicle 7.27552e-014 -5.96354e-015
lhumerus -41.1528 -20.6437 103.539
lradius 119.485
lwrist 13.1598
lhand -25.2279 -19.7001
lfingers 7.12502
lthumb 1.29149 10.2757
rfemur -66.2911 -7.34486 22.9718
rtibia 51.698
rfoot -5.02259 -2.13009
rtoes -23.994
lfemur -4.92636 -4.60441 -31.2594
ltibia 64.3049
lfoot 11.6417 -10.6716
ltoes -3.96464
49
root 0.989934 16.4118 -26.1959 16.8251 -6.07885 6.86903
lowerback 16.2785 -2.61005 -5.55822
upperback 0.167082 -4.43804 0.621687
thorax -8.48214 -1.88733 4.83503
lowerneck -19.3353 1.82119 -2.00005
upperneck 2.65741 3.09823 -2.83255
head 3.86406 1.32056 -0.2985
rclavicle -3.61788e-014 2.46493e-014
rhumerus -71.9613 -4.69758 -82.0848
rradius 90.3805
rwrist -8.5832
rhand -27.9461 8.84272
rfingers 7.12502
rthumb -1.33383 -21.1329
lclavicle -3.61788e-014 2.46493e-014
lhumerus -41.4459 -19.5477 103.47
lradius 116.328
lwrist 13.6618
lhand -25.4576 -19.5562
lfingers 7.12502
lthumb 1.06965 10.4208
rfemur -64.3818 -6.8559 23.5328
rtibia 53.0899
rfoot -5.88663 -3.08244
rtoes -20.0445
lfemur -6.83368 -3.64604 -30.0297
ltibia 69.6924
lfoot 10.5795 -10.964
ltoes -3.18721
50
root 0.952096 16.3927 -25.7456 15.9421 -6.00422 5.83639
lowerback 17.0062 -2.41448 -4.66629
upperback 0.367936 -4.0127 0.924692
thorax -8.75674 -1.70428 4.60806
lowerneck -19.2318 1.71209 -2.06081
upperneck 2.61181 2.9749 -2.97877
head 3.83595 1.25169 -0.34597
rclavicle 2.3059e-014 -1.59028e-014
rhumerus -69.6416 -5.23712 -82.5096
rradius 89.0987
rwrist -9.03577
rhand -27.8904 8.26956
rfingers 7.12502
rthumb -1.28002 -21.7063
lclavicle 2.3059e-014 -1.59028e-014
lhumerus -41.6629 -18.4314 103.333
lradius 112.995
lwrist 14.254
lhand -25.6703 -19.4018
lfingers 7.12502
lthumb 0.864183 10.5762
rfemur -62.2904 -6.10267 24.214
rtibia 54.5327
rfoot -6.98502 -4.35572
rtoes -16.8135
lfemur -8.86353 -2.57979 -28.4561
ltibia 75.1996
lfoot 9.40814 -11.3453
ltoes -2.3648
51
root 0.909749 16.4255 -25.291 15.0249 -5.9761 4.53607
lowerback 17.8261 -2.19652 -3.55437
upperback 0.592826 -3.49659 1.28392
thorax -9.06536 -1.48682 4.29116
lowerneck -19.1136 1.59599 -2.10171
upperneck 2.5446 2.83609 -3.12449
head 3.79899 1.17623 -0.397767
rclavicle -2.32578e-014 -1.86858e-014
rhumerus -67.1621 -5.58376 -83.0898
rradius 87.7937
rwrist -9.58773
rhand -27.9147 7.78236
rfingers 7.12502
rthumb -1.30352 -22.1934
lclavicle -2.32578e-014 -1.86858e-014
lhumerus -41.7988 -17.3033 103.12
lradius 109.505
lwrist 14.8936
lhand -25.8893 -19.259
lfingers 7.12502
lthumb 0.652647 10.7197
rfemur -59.7563 -5.15774 25.086
rtibia 55.758
rfoot -8.37618 -5.87027
rtoes -14.6796
lfemur -10.9437 -1.38697 -26.4743
ltibia 80.5337
lfoot 8.16289 -11.7655
ltoes -2.03572
52
root 0.870252 16.406 -24.8538 14.1221 -5.99776 3.04213
lowerback 18.6812 -1.96962 -2.28182
upperback 0.825209 -2.9118 1.68581
thorax -9.38227 -1.24522 3.90133
lowerneck -18.989 1.47783 -2.12094
upperneck 2.46844 2.68955 -3.28092
head 3.75856 1.09704 -0.456825
rclavicle -4.57205e-015 -2.34566e-014
rhumerus -64.5317 -5.6698 -83.8186
rradius 86.5168
rwrist -10.098
rhand -28.0179 7.40197
rfingers 7.12502
rthumb -1.40319 -22.5732
lclavicle -4.57205e-015 -2.34566e-014
lhumerus -41.8889 -16.1653 102.839
lradius 105.904
lwrist 15.4798
lhand -26.1306 -19.1402
lfingers 7.12502
lthumb 0.419595 10.8391
rfemur -57.3821 -4.05724 26.1732
rtibia 57.0102
rfoot -9.80363 -7.48838
rtoes -13.6787
lfemur -13.2578 -0.0823249 -24.1958
ltibia 86.0592
lfoot 6.52337 -12.107
ltoes -2.335
